<svg width="18" height="22" viewBox="0 0 18 22" fill="none" xmlns="http://www.w3.org/2000/svg">
<path d="M2.45003 12.86L3.09256 13.2469L3.09424 13.2441L2.45003 12.86ZM1.30003 14.77L0.657502 14.3831L0.657388 14.3833L1.30003 14.77ZM2.38003 17.7L2.13958 18.4104L2.14236 18.4114L2.38003 17.7ZM15.65 17.7L15.4146 16.9879L15.4124 16.9887L15.65 17.7ZM16.73 14.77L17.3731 14.3841L17.3726 14.3831L16.73 14.77ZM15.58 12.86L14.9303 13.2349L14.9375 13.2469L15.58 12.86ZM10.87 2.2L10.6609 2.92026C10.9354 2.99994 11.2312 2.91673 11.4239 2.70568C11.6166 2.49463 11.6726 2.19242 11.5683 1.92635L10.87 2.2ZM9.91003 2L9.817 2.74422L9.81978 2.74455L9.91003 2ZM7.17003 2.2L6.47173 1.92635C6.36744 2.19246 6.42348 2.49472 6.61623 2.70577C6.80897 2.91683 7.10492 2.99997 7.37938 2.92019L7.17003 2.2ZM9.02003 1.16C5.29581 1.16 2.27003 4.18579 2.27003 7.91H3.77003C3.77003 5.01422 6.12424 2.66 9.02003 2.66V1.16ZM2.27003 7.91V10.8H3.77003V7.91H2.27003ZM2.27003 10.8C2.27003 11.0146 2.22145 11.3287 2.1286 11.6631C2.03582 11.9974 1.91553 12.2919 1.80582 12.476L3.09424 13.2441C3.29453 12.9081 3.45923 12.4776 3.57395 12.0644C3.6886 11.6513 3.77003 11.1954 3.77003 10.8H2.27003ZM1.8075 12.4731L0.657502 14.3831L1.94255 15.1569L3.09255 13.2469L1.8075 12.4731ZM0.657388 14.3833C0.196351 15.1496 0.100149 16.0092 0.382945 16.7729C0.665414 17.5358 1.29717 18.1253 2.13958 18.4104L2.62047 16.9896C2.16288 16.8347 1.89964 16.5492 1.78961 16.2521C1.6799 15.9558 1.6937 15.5704 1.94267 15.1567L0.657388 14.3833ZM2.14236 18.4114C6.60661 19.9029 11.4234 19.9029 15.8877 18.4114L15.4124 16.9887C11.2566 18.3771 6.77344 18.3771 2.61769 16.9887L2.14236 18.4114ZM15.8854 18.4121C17.5545 17.8603 18.2789 15.8937 17.3731 14.3841L16.0869 15.1559C16.5012 15.8463 16.1656 16.7397 15.4146 16.9879L15.8854 18.4121ZM17.3726 14.3831L16.2226 12.4731L14.9375 13.2469L16.0875 15.1569L17.3726 14.3831ZM16.2297 12.4852C16.1218 12.2982 16.0028 12.0006 15.9108 11.6654C15.8187 11.3294 15.77 11.0149 15.77 10.8H14.27C14.27 11.1951 14.3514 11.6507 14.4642 12.0621C14.5773 12.4744 14.7383 12.9018 14.9304 13.2348L16.2297 12.4852ZM15.77 10.8V7.91H14.27V10.8H15.77ZM15.77 7.91C15.77 4.19579 12.7342 1.16 9.02003 1.16V2.66C11.9058 2.66 14.27 5.02422 14.27 7.91H15.77ZM11.0791 1.47974C10.7365 1.38028 10.3765 1.30106 10.0003 1.25545L9.81978 2.74455C10.1035 2.77895 10.3835 2.83972 10.6609 2.92026L11.0791 1.47974ZM10.0031 1.25579C8.94746 1.12385 7.92423 1.19971 6.96067 1.47982L7.37938 2.92019C8.13583 2.70029 8.95259 2.63616 9.817 2.74421L10.0031 1.25579ZM7.86832 2.47366C8.04887 2.01294 8.49717 1.69 9.02003 1.69V0.190002C7.86288 0.190002 6.87118 0.907067 6.47173 1.92635L7.86832 2.47366ZM9.02003 1.69C9.54288 1.69 9.99118 2.01294 10.1717 2.47366L11.5683 1.92635C11.1689 0.907067 10.1772 0.190002 9.02003 0.190002V1.69ZM11.27 18.06C11.27 19.2958 10.2558 20.31 9.02003 20.31V21.81C11.0842 21.81 12.77 20.1242 12.77 18.06H11.27ZM9.02003 20.31C8.40751 20.31 7.83588 20.0552 7.43036 19.6497L6.3697 20.7103C7.04417 21.3848 7.99255 21.81 9.02003 21.81V20.31ZM7.43036 19.6497C7.02483 19.2441 6.77003 18.6725 6.77003 18.06H5.27003C5.27003 19.0875 5.69522 20.0359 6.3697 20.7103L7.43036 19.6497Z" fill="#292D32"/>
</svg>
