<svg width="20" height="21" viewBox="0 0 20 21" fill="none" xmlns="http://www.w3.org/2000/svg">
<path d="M18.3812 9.375L16.75 7.74488V3.75C16.75 3.13125 16.2438 2.625 15.625 2.625H14.5C13.8812 2.625 13.375 3.13125 13.375 3.75V4.37212L11.125 2.12438C10.8179 1.83413 10.5366 1.5 10 1.5C9.46338 1.5 9.18213 1.83413 8.875 2.12438L1.61875 9.375C1.26775 9.74062 1 10.0073 1 10.5C1 11.1334 1.486 11.625 2.125 11.625H3.25V18.375C3.25 18.9938 3.75625 19.5 4.375 19.5H6.625C7.24632 19.5 7.75 18.9963 7.75 18.375V13.875C7.75 13.2562 8.25625 12.75 8.875 12.75H11.125C11.7438 12.75 12.25 13.2562 12.25 13.875V18.375C12.25 18.9963 12.1912 19.5 12.8125 19.5H15.625C16.2438 19.5 16.75 18.9938 16.75 18.375V11.625H17.875C18.514 11.625 19 11.1334 19 10.5C19 10.0073 18.7322 9.74062 18.3812 9.375Z" stroke="black" stroke-width="1.5" stroke-linejoin="round"/>
</svg>
