<svg width="22" height="22" viewBox="0 0 22 22" fill="none" xmlns="http://www.w3.org/2000/svg">
<path d="M1.40002 0.742737C0.985811 0.742737 0.650024 1.07852 0.650024 1.49274C0.650024 1.90695 0.985811 2.24274 1.40002 2.24274V0.742737ZM3.69256 1.49274L4.41648 1.29668C4.32794 0.969749 4.03127 0.742737 3.69256 0.742737V1.49274ZM7.41793 15.248L6.69401 15.444C6.79172 15.8048 7.14011 16.0385 7.51096 15.9922L7.41793 15.248ZM18.8806 13.8151L18.9736 14.5593C19.2922 14.5195 19.55 14.2814 19.6151 13.9671L18.8806 13.8151ZM20.6 5.50468L21.3345 5.65663C21.3802 5.43575 21.324 5.20602 21.1816 5.03111C21.0392 4.8562 20.8256 4.75468 20.6 4.75468V5.50468ZM4.77913 5.50468L4.05521 5.70074L4.77913 5.50468ZM1.40002 2.24274H3.69256V0.742737H1.40002V2.24274ZM7.51096 15.9922L18.9736 14.5593L18.7876 13.0709L7.32491 14.5038L7.51096 15.9922ZM19.6151 13.9671L21.3345 5.65663L19.8656 5.35272L18.1462 13.6632L19.6151 13.9671ZM2.96864 1.6888L4.05521 5.70074L5.50305 5.30862L4.41648 1.29668L2.96864 1.6888ZM4.05521 5.70074L6.69401 15.444L8.14185 15.0519L5.50305 5.30862L4.05521 5.70074ZM20.6 4.75468H4.77913V6.25468H20.6V4.75468ZM10.25 19C10.25 19.4142 9.91424 19.75 9.50002 19.75V21.25C10.7427 21.25 11.75 20.2427 11.75 19H10.25ZM9.50002 19.75C9.08581 19.75 8.75002 19.4142 8.75002 19H7.25002C7.25002 20.2427 8.25738 21.25 9.50002 21.25V19.75ZM8.75002 19C8.75002 18.5858 9.08581 18.25 9.50002 18.25V16.75C8.25738 16.75 7.25002 17.7574 7.25002 19H8.75002ZM9.50002 18.25C9.91424 18.25 10.25 18.5858 10.25 19H11.75C11.75 17.7574 10.7427 16.75 9.50002 16.75V18.25ZM18.25 19C18.25 19.4142 17.9142 19.75 17.5 19.75V21.25C18.7427 21.25 19.75 20.2427 19.75 19H18.25ZM17.5 19.75C17.0858 19.75 16.75 19.4142 16.75 19H15.25C15.25 20.2427 16.2574 21.25 17.5 21.25V19.75ZM16.75 19C16.75 18.5858 17.0858 18.25 17.5 18.25V16.75C16.2574 16.75 15.25 17.7574 15.25 19H16.75ZM17.5 18.25C17.9142 18.25 18.25 18.5858 18.25 19H19.75C19.75 17.7574 18.7427 16.75 17.5 16.75V18.25Z" fill="black"/>
</svg>
