<svg width="24" height="23" viewBox="0 0 24 23" fill="none" xmlns="http://www.w3.org/2000/svg">
<path d="M18.5588 19.0488C17.5654 16.3918 15.0036 14.5 12 14.5C8.99638 14.5 6.4346 16.3918 5.44117 19.0488M18.5588 19.0488C20.6672 17.2154 22 14.5134 22 11.5C22 5.97715 17.5228 1.5 12 1.5C6.47715 1.5 2 5.97715 2 11.5C2 14.5134 3.33285 17.2154 5.44117 19.0488M18.5588 19.0488C16.8031 20.5756 14.5095 21.5 12 21.5C9.49052 21.5 7.19694 20.5756 5.44117 19.0488M15 8.5C15 10.1569 13.6569 11.5 12 11.5C10.3431 11.5 9 10.1569 9 8.5C9 6.84315 10.3431 5.5 12 5.5C13.6569 5.5 15 6.84315 15 8.5Z" stroke="#141718" stroke-width="1.5" stroke-linejoin="round"/>
</svg>
